<mxfile host="app.diagrams.net" modified="2023-07-25T12:48:31.045Z" agent="Mozilla/5.0 (Windows NT 10.0; Win64; x64) AppleWebKit/537.36 (KHTML, like Gecko) Chrome/114.0.0.0 Safari/537.36" etag="v39scblUNzTD3-Mdth-E" version="21.6.5" type="device">
  <diagram name="Página-1" id="_b9BxaEk9Kp9ST4_Jdw4">
    <mxGraphModel dx="1500" dy="830" grid="1" gridSize="10" guides="1" tooltips="1" connect="1" arrows="1" fold="1" page="1" pageScale="1" pageWidth="827" pageHeight="1169" math="0" shadow="0">
      <root>
        <mxCell id="0" />
        <mxCell id="1" parent="0" />
        <mxCell id="cD6r1RW8nwFcYrbuoBNg-1" value="&lt;div&gt;Uma clínica veterinária deseja cadastrar os pets que são atendidos em seu local.&lt;/div&gt;&lt;div&gt;&lt;br&gt;&lt;/div&gt;&lt;div&gt;- a clínica contém um endereço;&lt;/div&gt;&lt;div&gt;- os pets deverão ter nome, data de nascimento, tipo de pet;&lt;/div&gt;&lt;div&gt;- os pets deverão ter raça;&lt;/div&gt;&lt;div&gt;- os pets deverão ter donos;&lt;/div&gt;&lt;div&gt;- a clínica deseja cadastrar seus veterinários e todo atendimento de pet será feito por um veterinário;&lt;/div&gt;" style="text;html=1;align=center;verticalAlign=middle;resizable=0;points=[];autosize=1;strokeColor=none;fillColor=none;" vertex="1" parent="1">
          <mxGeometry width="560" height="110" as="geometry" />
        </mxCell>
        <mxCell id="cD6r1RW8nwFcYrbuoBNg-4" style="edgeStyle=orthogonalEdgeStyle;rounded=0;orthogonalLoop=1;jettySize=auto;html=1;entryX=0;entryY=0.5;entryDx=0;entryDy=0;" edge="1" parent="1" source="cD6r1RW8nwFcYrbuoBNg-2" target="cD6r1RW8nwFcYrbuoBNg-3">
          <mxGeometry relative="1" as="geometry" />
        </mxCell>
        <mxCell id="cD6r1RW8nwFcYrbuoBNg-2" value="Clínica" style="whiteSpace=wrap;html=1;" vertex="1" parent="1">
          <mxGeometry x="50" y="120" width="120" height="60" as="geometry" />
        </mxCell>
        <mxCell id="cD6r1RW8nwFcYrbuoBNg-3" value="Endereço" style="ellipse;whiteSpace=wrap;html=1;" vertex="1" parent="1">
          <mxGeometry x="200" y="104" width="60" height="30" as="geometry" />
        </mxCell>
        <mxCell id="cD6r1RW8nwFcYrbuoBNg-28" style="edgeStyle=orthogonalEdgeStyle;rounded=0;orthogonalLoop=1;jettySize=auto;html=1;entryX=0;entryY=0.5;entryDx=0;entryDy=0;" edge="1" parent="1" source="cD6r1RW8nwFcYrbuoBNg-5" target="cD6r1RW8nwFcYrbuoBNg-6">
          <mxGeometry relative="1" as="geometry" />
        </mxCell>
        <mxCell id="cD6r1RW8nwFcYrbuoBNg-29" style="edgeStyle=orthogonalEdgeStyle;rounded=0;orthogonalLoop=1;jettySize=auto;html=1;" edge="1" parent="1" source="cD6r1RW8nwFcYrbuoBNg-5" target="cD6r1RW8nwFcYrbuoBNg-7">
          <mxGeometry relative="1" as="geometry">
            <Array as="points">
              <mxPoint x="520" y="260" />
              <mxPoint x="520" y="260" />
            </Array>
          </mxGeometry>
        </mxCell>
        <mxCell id="cD6r1RW8nwFcYrbuoBNg-30" style="edgeStyle=orthogonalEdgeStyle;rounded=0;orthogonalLoop=1;jettySize=auto;html=1;entryX=0;entryY=0.5;entryDx=0;entryDy=0;" edge="1" parent="1" source="cD6r1RW8nwFcYrbuoBNg-5" target="cD6r1RW8nwFcYrbuoBNg-8">
          <mxGeometry relative="1" as="geometry" />
        </mxCell>
        <mxCell id="cD6r1RW8nwFcYrbuoBNg-38" style="edgeStyle=orthogonalEdgeStyle;rounded=0;orthogonalLoop=1;jettySize=auto;html=1;entryX=0.5;entryY=1;entryDx=0;entryDy=0;" edge="1" parent="1" source="cD6r1RW8nwFcYrbuoBNg-5" target="cD6r1RW8nwFcYrbuoBNg-37">
          <mxGeometry relative="1" as="geometry">
            <Array as="points">
              <mxPoint x="410" y="220" />
              <mxPoint x="410" y="220" />
            </Array>
          </mxGeometry>
        </mxCell>
        <mxCell id="cD6r1RW8nwFcYrbuoBNg-5" value="Pets" style="rounded=0;whiteSpace=wrap;html=1;" vertex="1" parent="1">
          <mxGeometry x="354" y="230" width="120" height="60" as="geometry" />
        </mxCell>
        <mxCell id="cD6r1RW8nwFcYrbuoBNg-6" value="Nome" style="ellipse;whiteSpace=wrap;html=1;" vertex="1" parent="1">
          <mxGeometry x="520" y="200" width="60" height="30" as="geometry" />
        </mxCell>
        <mxCell id="cD6r1RW8nwFcYrbuoBNg-7" value="Data de nascimento" style="ellipse;whiteSpace=wrap;html=1;" vertex="1" parent="1">
          <mxGeometry x="515" y="236" width="70" height="40" as="geometry" />
        </mxCell>
        <mxCell id="cD6r1RW8nwFcYrbuoBNg-8" value="Tipo de pet" style="ellipse;whiteSpace=wrap;html=1;" vertex="1" parent="1">
          <mxGeometry x="520" y="280" width="60" height="30" as="geometry" />
        </mxCell>
        <mxCell id="cD6r1RW8nwFcYrbuoBNg-16" style="edgeStyle=orthogonalEdgeStyle;rounded=0;orthogonalLoop=1;jettySize=auto;html=1;entryX=1;entryY=0.5;entryDx=0;entryDy=0;" edge="1" parent="1" source="cD6r1RW8nwFcYrbuoBNg-9" target="cD6r1RW8nwFcYrbuoBNg-15">
          <mxGeometry relative="1" as="geometry" />
        </mxCell>
        <mxCell id="cD6r1RW8nwFcYrbuoBNg-18" style="edgeStyle=orthogonalEdgeStyle;rounded=0;orthogonalLoop=1;jettySize=auto;html=1;" edge="1" parent="1" source="cD6r1RW8nwFcYrbuoBNg-9" target="cD6r1RW8nwFcYrbuoBNg-17">
          <mxGeometry relative="1" as="geometry" />
        </mxCell>
        <mxCell id="cD6r1RW8nwFcYrbuoBNg-9" value="Raça" style="rounded=0;whiteSpace=wrap;html=1;" vertex="1" parent="1">
          <mxGeometry x="250" y="440" width="120" height="60" as="geometry" />
        </mxCell>
        <mxCell id="cD6r1RW8nwFcYrbuoBNg-13" style="edgeStyle=orthogonalEdgeStyle;rounded=0;orthogonalLoop=1;jettySize=auto;html=1;entryX=0;entryY=0.5;entryDx=0;entryDy=0;" edge="1" parent="1" source="cD6r1RW8nwFcYrbuoBNg-10" target="cD6r1RW8nwFcYrbuoBNg-11">
          <mxGeometry relative="1" as="geometry" />
        </mxCell>
        <mxCell id="cD6r1RW8nwFcYrbuoBNg-14" style="edgeStyle=orthogonalEdgeStyle;rounded=0;orthogonalLoop=1;jettySize=auto;html=1;entryX=0;entryY=0.5;entryDx=0;entryDy=0;" edge="1" parent="1" source="cD6r1RW8nwFcYrbuoBNg-10" target="cD6r1RW8nwFcYrbuoBNg-12">
          <mxGeometry relative="1" as="geometry" />
        </mxCell>
        <mxCell id="cD6r1RW8nwFcYrbuoBNg-19" style="edgeStyle=orthogonalEdgeStyle;rounded=0;orthogonalLoop=1;jettySize=auto;html=1;entryX=0.5;entryY=1;entryDx=0;entryDy=0;" edge="1" parent="1" source="cD6r1RW8nwFcYrbuoBNg-10" target="cD6r1RW8nwFcYrbuoBNg-17">
          <mxGeometry relative="1" as="geometry">
            <Array as="points">
              <mxPoint x="414" y="470" />
            </Array>
          </mxGeometry>
        </mxCell>
        <mxCell id="cD6r1RW8nwFcYrbuoBNg-10" value="Dono" style="rounded=0;whiteSpace=wrap;html=1;" vertex="1" parent="1">
          <mxGeometry x="440" y="440" width="120" height="60" as="geometry" />
        </mxCell>
        <mxCell id="cD6r1RW8nwFcYrbuoBNg-11" value="Nome" style="ellipse;whiteSpace=wrap;html=1;" vertex="1" parent="1">
          <mxGeometry x="600" y="440" width="60" height="30" as="geometry" />
        </mxCell>
        <mxCell id="cD6r1RW8nwFcYrbuoBNg-12" value="Genero" style="ellipse;whiteSpace=wrap;html=1;" vertex="1" parent="1">
          <mxGeometry x="600" y="480" width="60" height="30" as="geometry" />
        </mxCell>
        <mxCell id="cD6r1RW8nwFcYrbuoBNg-15" value="Nome da raça" style="ellipse;whiteSpace=wrap;html=1;" vertex="1" parent="1">
          <mxGeometry x="120" y="450" width="70" height="40" as="geometry" />
        </mxCell>
        <mxCell id="cD6r1RW8nwFcYrbuoBNg-20" style="edgeStyle=orthogonalEdgeStyle;rounded=0;orthogonalLoop=1;jettySize=auto;html=1;entryX=0.5;entryY=1;entryDx=0;entryDy=0;" edge="1" parent="1" source="cD6r1RW8nwFcYrbuoBNg-17" target="cD6r1RW8nwFcYrbuoBNg-5">
          <mxGeometry relative="1" as="geometry" />
        </mxCell>
        <mxCell id="cD6r1RW8nwFcYrbuoBNg-17" value="Possui" style="rhombus;whiteSpace=wrap;html=1;" vertex="1" parent="1">
          <mxGeometry x="374" y="320" width="80" height="80" as="geometry" />
        </mxCell>
        <mxCell id="cD6r1RW8nwFcYrbuoBNg-24" style="edgeStyle=orthogonalEdgeStyle;rounded=0;orthogonalLoop=1;jettySize=auto;html=1;entryX=0;entryY=0.5;entryDx=0;entryDy=0;" edge="1" parent="1" source="cD6r1RW8nwFcYrbuoBNg-21" target="cD6r1RW8nwFcYrbuoBNg-23">
          <mxGeometry relative="1" as="geometry" />
        </mxCell>
        <mxCell id="cD6r1RW8nwFcYrbuoBNg-21" value="Veterinario" style="rounded=0;whiteSpace=wrap;html=1;" vertex="1" parent="1">
          <mxGeometry x="50" y="276" width="120" height="60" as="geometry" />
        </mxCell>
        <mxCell id="cD6r1RW8nwFcYrbuoBNg-32" style="edgeStyle=orthogonalEdgeStyle;rounded=0;orthogonalLoop=1;jettySize=auto;html=1;entryX=0.5;entryY=1;entryDx=0;entryDy=0;" edge="1" parent="1" source="cD6r1RW8nwFcYrbuoBNg-22" target="cD6r1RW8nwFcYrbuoBNg-2">
          <mxGeometry relative="1" as="geometry" />
        </mxCell>
        <mxCell id="cD6r1RW8nwFcYrbuoBNg-33" style="edgeStyle=orthogonalEdgeStyle;rounded=0;orthogonalLoop=1;jettySize=auto;html=1;" edge="1" parent="1" source="cD6r1RW8nwFcYrbuoBNg-22">
          <mxGeometry relative="1" as="geometry">
            <mxPoint x="110" y="270" as="targetPoint" />
          </mxGeometry>
        </mxCell>
        <mxCell id="cD6r1RW8nwFcYrbuoBNg-22" value="Cadastrar" style="rhombus;whiteSpace=wrap;html=1;" vertex="1" parent="1">
          <mxGeometry x="75" y="190" width="70" height="70" as="geometry" />
        </mxCell>
        <mxCell id="cD6r1RW8nwFcYrbuoBNg-25" style="edgeStyle=orthogonalEdgeStyle;rounded=0;orthogonalLoop=1;jettySize=auto;html=1;entryX=0;entryY=0.5;entryDx=0;entryDy=0;" edge="1" parent="1" source="cD6r1RW8nwFcYrbuoBNg-23" target="cD6r1RW8nwFcYrbuoBNg-5">
          <mxGeometry relative="1" as="geometry">
            <Array as="points">
              <mxPoint x="310" y="260" />
              <mxPoint x="310" y="260" />
            </Array>
          </mxGeometry>
        </mxCell>
        <mxCell id="cD6r1RW8nwFcYrbuoBNg-23" value="Atendimento" style="rhombus;whiteSpace=wrap;html=1;" vertex="1" parent="1">
          <mxGeometry x="220" y="220" width="80" height="80" as="geometry" />
        </mxCell>
        <mxCell id="cD6r1RW8nwFcYrbuoBNg-26" value="1" style="text;html=1;align=center;verticalAlign=middle;resizable=0;points=[];autosize=1;strokeColor=none;fillColor=none;" vertex="1" parent="1">
          <mxGeometry x="455" y="408" width="30" height="30" as="geometry" />
        </mxCell>
        <mxCell id="cD6r1RW8nwFcYrbuoBNg-27" value="1" style="text;html=1;align=center;verticalAlign=middle;resizable=0;points=[];autosize=1;strokeColor=none;fillColor=none;" vertex="1" parent="1">
          <mxGeometry x="325" y="408" width="30" height="30" as="geometry" />
        </mxCell>
        <mxCell id="cD6r1RW8nwFcYrbuoBNg-31" style="edgeStyle=orthogonalEdgeStyle;rounded=0;orthogonalLoop=1;jettySize=auto;html=1;exitX=0.5;exitY=1;exitDx=0;exitDy=0;" edge="1" parent="1" source="cD6r1RW8nwFcYrbuoBNg-22" target="cD6r1RW8nwFcYrbuoBNg-22">
          <mxGeometry relative="1" as="geometry" />
        </mxCell>
        <mxCell id="cD6r1RW8nwFcYrbuoBNg-34" value="1" style="text;html=1;align=center;verticalAlign=middle;resizable=0;points=[];autosize=1;strokeColor=none;fillColor=none;" vertex="1" parent="1">
          <mxGeometry x="135" y="178" width="30" height="30" as="geometry" />
        </mxCell>
        <mxCell id="cD6r1RW8nwFcYrbuoBNg-35" value="1" style="text;html=1;align=center;verticalAlign=middle;resizable=0;points=[];autosize=1;strokeColor=none;fillColor=none;" vertex="1" parent="1">
          <mxGeometry x="125" y="248" width="30" height="30" as="geometry" />
        </mxCell>
        <mxCell id="cD6r1RW8nwFcYrbuoBNg-36" value="N" style="text;html=1;align=center;verticalAlign=middle;resizable=0;points=[];autosize=1;strokeColor=none;fillColor=none;" vertex="1" parent="1">
          <mxGeometry x="325" y="230" width="30" height="30" as="geometry" />
        </mxCell>
        <mxCell id="cD6r1RW8nwFcYrbuoBNg-39" style="edgeStyle=orthogonalEdgeStyle;rounded=0;orthogonalLoop=1;jettySize=auto;html=1;entryX=1;entryY=0.75;entryDx=0;entryDy=0;" edge="1" parent="1" source="cD6r1RW8nwFcYrbuoBNg-37" target="cD6r1RW8nwFcYrbuoBNg-2">
          <mxGeometry relative="1" as="geometry">
            <Array as="points">
              <mxPoint x="170" y="168" />
            </Array>
          </mxGeometry>
        </mxCell>
        <mxCell id="cD6r1RW8nwFcYrbuoBNg-37" value="Cadastrar" style="rhombus;whiteSpace=wrap;html=1;" vertex="1" parent="1">
          <mxGeometry x="370" y="128" width="80" height="80" as="geometry" />
        </mxCell>
      </root>
    </mxGraphModel>
  </diagram>
</mxfile>
